<svg xmlns="http://www.w3.org/2000/svg" width="97.2" height="96.24" viewBox="166.521 111.61 97.2 96.24" > <defs> <mask id="mask-2" width="62.06" height="62.06" x="17.32" y="26.61" maskUnits="userSpaceOnUse" > <rect width="62.06" height="62.06" x="17.32" y="26.61" class="cls-2" /> </mask> <radialGradient id="radial-gradient-2" cx="-93.14" cy="316.08" r="0.74" gradientTransform="matrix(37.15, 0, 0, -37.15, 3507.94, 11801.1)" gradientUnits="userSpaceOnUse" > <stop offset="0" stop-color="#fff" /> <stop offset="0.04" stop-color="#f3f3f3" /> <stop offset="0.4" stop-color="#8c8c8c" /> <stop offset="0.69" stop-color="#414141" /> <stop offset="0.9" stop-color="#121212" /> <stop offset="1" /> </radialGradient> <radialGradient id="radial-gradient-6" cx="-93.14" cy="316.08" r="0.74" gradientTransform="matrix(37.15, 0, 0, -37.15, 3507.94, 11801.1)" gradientUnits="userSpaceOnUse" > <stop offset="0" stop-color="#3d80a7" /> <stop offset="0.12" stop-color="#3587b1" /> <stop offset="0.7" stop-color="#0faadf" /> <stop offset="1" stop-color="#00b7f1" /> </radialGradient> <clipPath id="clip-path"> <path d="M48.88.46A47.83,47.83,0,1,0,97.07,48.29,48,48,0,0,0,48.88.46h0" class="cls-4" /> </clipPath> <radialGradient id="radial-gradient-4" cx="-93.79" cy="317.45" r="0.75" gradientTransform="matrix(67.779999, 0, 0, -67.260002, 6405.569824, 21399.029297)" gradientUnits="userSpaceOnUse" > <stop offset="0" stop-color="#448ccb" /> <stop offset="0.11" stop-color="#418ac9" /> <stop offset="0.2" stop-color="#3783c4" /> <stop offset="0.29" stop-color="#2579bc" /> <stop offset="0.37" stop-color="#0d69b0" /> <stop offset="0.41" stop-color="#0061aa" /> <stop offset="1" stop-color="#00011d" /> </radialGradient> <clipPath id="clip-path-2"> <path d="M40.76.71A39.4,39.4,0,0,0,11.54,42.47C13,56.45,26.37,71.88,51.8,71.88S88.68,57.42,90.85,42.47c1.47-10.11-1.8-20.72-8.46-28.83A49.19,49.19,0,0,0,59.84,1.28,46.61,46.61,0,0,0,49,0a48,48,0,0,0-8.2.71" class="cls-4" /> </clipPath> <mask id="mask" width="82.68" height="71.88" x="9.64" y="0" maskUnits="userSpaceOnUse" > <rect width="82.68" height="71.88" x="9.64" class="cls-1" /> </mask> <radialGradient id="radial-gradient" cx="-93.86" cy="317.69" r="0.74" gradientTransform="matrix(73.55, 0, 0, -73.55, 6957.26, 23421.68)" gradientUnits="userSpaceOnUse" > <stop offset="0" /> <stop offset="0.02" /> <stop offset="0.23" stop-color="#030303" /> <stop offset="0.39" stop-color="#0d0d0d" /> <stop offset="0.54" stop-color="#1f1f1f" /> <stop offset="0.69" stop-color="#373737" /> <stop offset="0.83" stop-color="#565656" /> <stop offset="0.96" stop-color="#7c7c7c" /> <stop offset="1" stop-color="#878787" /> </radialGradient> <radialGradient id="radial-gradient-5" cx="-93.86" cy="317.69" r="0.74" gradientTransform="matrix(73.55, 0, 0, -73.55, 6957.07, 23421.74)" gradientUnits="userSpaceOnUse" > <stop offset="0" stop-color="#0088ce" /> <stop offset="0.02" stop-color="#0088ce" /> <stop offset="0.18" stop-color="#038acf" /> <stop offset="0.3" stop-color="#0d8ed1" /> <stop offset="0.42" stop-color="#1f96d4" /> <stop offset="0.53" stop-color="#37a2d9" /> <stop offset="0.64" stop-color="#56b0df" /> <stop offset="0.74" stop-color="#7dc2e6" /> <stop offset="0.85" stop-color="#aad7ef" /> <stop offset="0.94" stop-color="#deeff9" /> <stop offset="1" stop-color="#fff" /> </radialGradient> <clipPath id="clip-path-3"> <rect width="62.06" height="62.06" x="18.04" y="31.95" class="cls-4" /> </clipPath> <clipPath id="clip-path-4"> <path d="M80.1,63a31,31,0,1,1-31-31,31,31,0,0,1,31,31" class="cls-4" /> </clipPath> <mask id="mask-3" width="62.06" height="62.06" x="18.04" y="31.95" maskUnits="userSpaceOnUse" > <rect width="62.06" height="62.06" x="18.04" y="31.95" class="cls-3" /> </mask> <radialGradient id="radial-gradient-3" cx="-93.15" cy="316.39" r="0.74" gradientTransform="matrix(37.15, 0, 0, -37.15, 3509.11, 11818.3)" gradientUnits="userSpaceOnUse" > <stop offset="0" stop-color="#fff" /> <stop offset="0.14" stop-color="#d9d9d9" /> <stop offset="0.74" stop-color="#3e3e3e" /> <stop offset="1" /> </radialGradient> <radialGradient id="radial-gradient-7" cx="-93.15" cy="316.39" r="0.74" gradientTransform="matrix(37.15, 0, 0, -37.15, 3509.11, 11818.3)" gradientUnits="userSpaceOnUse" > <stop offset="0" stop-color="#fff" /> <stop offset="0.64" stop-color="#89c3e7" /> <stop offset="1" stop-color="#4ba3da" /> </radialGradient> <clipPath id="clip-path-5"> <path d="M16.23,12.12c-.56,0-3.11,2.8-4.47,4.4-1.63,1.91-4.56,5.69-4.32,6.2,2.6-2.22,6.28-2.92,13-2.08,8.58,1.05,17.84,3.05,29.9,5.71C60.81,28.64,71.21,30.94,79.46,32c-2.84-.11-6-.34-9.26-.65-9.89-.95-12.83-1.24-23.54-2.9-10.56-1.63-25.39-4.13-35.08-3.29-3.15.27-5.54,1.12-7,3-.65.43-1.58,3.28-2.13,5C1.58,35.78.37,41,.77,41.45c.63-2.66,4-7.9,18.84-8.24,8.7-.2,18.67-.16,31,.52,10.65.57,21.29,1.16,29.6.84-2.82.36-5.94.63-9.25.85-9.91.67-16.86.61-27.89,1s-28.6,1.58-34,2.94c-7.78,2-8.84,7.07-8.89,7.75a23,23,0,0,0,.17,5.56A30.07,30.07,0,0,0,1.59,59C1.68,57.84,2.65,49,14.51,46.41,23.19,44.54,39.08,42.75,52,41c10.57-1.45,21.19-2.3,29.34-3.95-2.72.8-5.75,1.58-9,2.33-9.67,2.27-21.15,4.34-31.77,6.52S19,49,10.91,53.3A13.76,13.76,0,0,0,3.47,65.19a19.07,19.07,0,0,0,1.72,4.44A23.89,23.89,0,0,0,8.1,74.34c-2.11-4.52.47-12,11.71-16.16,8.11-3,22.87-7,34.77-10.29C63.41,45.44,72.22,43,79.45,40.5c-1.72.73-3.53,1.48-5.42,2.22-9.24,3.64-20.28,7.39-30.49,11.05-12.18,4.35-19.76,6.54-25.36,11-6,4.79-7.92,9.77-6.78,14.11a3.88,3.88,0,0,0,.49.82,48.18,48.18,0,0,0,5.93,5.85,7.34,7.34,0,0,0,.92.6c-2.66-3-1.52-11.32,9-17.84,7.34-4.57,18.67-9.55,30-14.54,7.58-3.35,15.14-6.68,21.55-9.9-1,.63-2.07,1.26-3.15,1.9-8.55,5.07-18.87,10.5-28.34,15.77S31.15,69.3,24.44,76.4c-4.3,4.54-4.55,8.06-3.9,11,1.57,1.68,8.13,5.12,9,5.12-2.55-2.38-3.05-7.27,4.86-14.17C40.9,72.69,51.29,66,61.65,59.23S82.38,45.78,89,40.07a34.19,34.19,0,0,0,5.44-5.69l.75-1.08a6.51,6.51,0,0,0-.24-1.11l-.18-.53-.09-.25c-.48-1.18-.89-2-.89-2l-.58.45a5.37,5.37,0,0,1-2.35.55,31.1,31.1,0,0,1-4.22,0c-8-.32-27.41-6-40.19-10.45-14.81-5.11-21.87-8.39-26.93-8.39a9.28,9.28,0,0,0-3.27.55" class="cls-4" /> </clipPath> <clipPath id="clip-path-6"> <path d="M48.88.33a48,48,0,1,0,48.32,48A48.14,48.14,0,0,0,48.88.33h0" class="cls-4" /> </clipPath> <radialGradient id="radial-gradient-8" cx="-93.98" cy="317.91" r="0.72" gradientTransform="matrix(94.79, 0, 0, -94.79, 8965.76, 30178.08)" gradientUnits="userSpaceOnUse" > <stop offset="0" stop-color="#fff" /> <stop offset="0.28" stop-color="#fff" /> <stop offset="0.29" stop-color="#fff" /> <stop offset="0.52" stop-color="#fdfdfd" /> <stop offset="0.6" stop-color="#f6f7f7" /> <stop offset="0.66" stop-color="#ebebec" /> <stop offset="0.71" stop-color="#dadbdc" /> <stop offset="0.75" stop-color="#c4c5c8" /> <stop offset="0.78" stop-color="#b1b3b6" /> <stop offset="1" stop-color="#a7a9ac" /> </radialGradient> <style> .cls-1 { fill: url(#radial-gradient); } .cls-2 { fill: url(#radial-gradient-2); } .cls-3 { fill: url(#radial-gradient-3); } .cls-4 { fill: none; } .cls-5 { clip-path: url(#clip-path); } .cls-6 { fill: url(#radial-gradient-4); } .cls-7 { clip-path: url(#clip-path-2); } .cls-8 { mask: url(#mask); } .cls-9 { fill: url(#radial-gradient-5); } .cls-10 { mask: url(#mask-2); } .cls-11 { fill: url(#radial-gradient-6); } .cls-12 { clip-path: url(#clip-path-3); } .cls-13 { clip-path: url(#clip-path-4); } .cls-14 { mask: url(#mask-3); } .cls-15 { fill: url(#radial-gradient-7); } .cls-16 { clip-path: url(#clip-path-5); } .cls-17 { clip-path: url(#clip-path-6); } .cls-18 { fill: url(#radial-gradient-8); } .cls-19 { fill: #fff; } </style> </defs> <g style="" transform="matrix(1, 0, 0, 1, 166.521011, 111.610214)" > <g class="cls-10"> <rect width="62.06" height="62.06" x="17.32" y="26.61" class="cls-11" style="" /> </g> <g class="cls-5"> <rect width="96.64" height="95.91" x="0.56" y="0.33" class="cls-6" style="" /> </g> <g class="cls-7"> <g class="cls-8"> <rect width="82.68" height="71.88" x="9.64" class="cls-9" /> </g> </g> <g class="cls-12" style=""> <g class="cls-13"> <g class="cls-14"> <rect width="62.06" height="62.06" x="18.04" y="31.95" class="cls-15" /> </g> </g> </g> <g class="cls-16" style=""> <g class="cls-17"> <rect width="95.17" height="80.97" y="11.57" class="cls-18" /> </g> </g> </g> </svg>
