<svg xmlns="http://www.w3.org/2000/svg" width="58px" height="58px" viewBox="0 0 58 58"> <g id="Page-1" stroke="none" stroke-width="1" fill="none" fill-rule="evenodd" > <g id="017---Online-Discount"> <path d="M56,11 L56,50 L2,48 L2,11 C2,8.790861 3.790861,7 6,7 L52,7 C54.209139,7 56,8.790861 56,11 Z" id="Path" fill="#2FA8CC" /> <path d="M58,49 L58,52 C58,55.3137085 55.3137085,58 52,58 L6,58 C2.6862915,58 4.4408921e-16,55.3137085 0,52 L0,49 C0,48.4477153 0.44771525,48 1,48 L57,48 C57.5522847,48 58,48.4477153 58,49 Z" id="Path" fill="#547580" /> <path d="M19,48 L39,48 L39,50 C39,51.6568542 37.6568542,53 36,53 L22,53 C20.3431458,53 19,51.6568542 19,50 L19,48 Z" id="Path" fill="#3F5C6C" /> <path d="M52.96,7.12 C41.56,7.85 2,12.91 2,48 L2,11 C2,8.790861 3.790861,7 6,7 L52,7 C52.3237886,6.99921707 52.6463669,7.03953936 52.96,7.12 Z" id="Path" fill="#67B9CC" /> <path d="M14,53 L11,53 C10.4477153,53 10,52.5522847 10,52 C10,51.4477153 10.4477153,51 11,51 L14,51 C14.5522847,51 15,51.4477153 15,52 C15,52.5522847 14.5522847,53 14,53 Z" id="Path" fill="#3F5C6C" /> <circle id="Oval" fill="#4FBA6F" cx="5" cy="52" r="1" /> <circle id="Oval" fill="#4FBA6F" cx="8" cy="52" r="1" /> <path d="M48.668,23.368 L49.751,26.242 C50.388389,27.9274504 49.7775097,29.829761 48.278,30.829 L45.732,32.51 C44.9496117,33.0292745 44.3841044,33.8167167 44.142,34.724 L43.348,37.693 C42.8939809,39.4303944 41.2857337,40.6128065 39.492,40.528 L36.456,40.374 C35.5231864,40.3278244 34.6063976,40.6292637 33.883,41.22 L31.516,43.15 C30.1289186,44.2828701 28.1360814,44.2828701 26.749,43.15 L24.381,41.22 C23.6579092,40.629415 22.7414876,40.3279792 21.809,40.374 L18.773,40.528 C16.9788997,40.6132917 15.3700954,39.4307767 14.916,37.693 L14.122,34.724 C13.8802358,33.8165559 13.3146494,33.0290036 12.532,32.51 L9.987,30.829 C8.48749032,29.829761 7.87661096,27.9274504 8.514,26.242 L9.6,23.368 C9.93203468,22.4862212 9.93203468,21.5137788 9.6,20.632 L8.514,17.758 C7.87661096,16.0725496 8.48749032,14.170239 9.987,13.171 L12.532,11.49 C13.3146494,10.9709964 13.8802358,10.1834441 14.122,9.276 L14.916,6.307 C15.3700954,4.56922327 16.9788997,3.38670829 18.773,3.472 L21.809,3.626 C22.7414876,3.67202077 23.6579092,3.37058504 24.381,2.78 L26.749,0.85 C28.1360814,-0.282870087 30.1289186,-0.282870087 31.516,0.85 L33.883,2.78 C34.6063976,3.37073625 35.5231864,3.67217555 36.456,3.626 L39.492,3.472 C41.2857337,3.38719355 42.8939809,4.5696056 43.348,6.307 L44.142,9.276 C44.3841044,10.1832833 44.9496117,10.9707255 45.732,11.49 L48.278,13.171 C49.7775097,14.170239 50.388389,16.0725496 49.751,17.758 L48.668,20.632 C48.3369675,21.5139609 48.3369675,22.4860391 48.668,23.368 Z" id="Path" fill="#FF5364" /> <circle id="Oval" fill="#F3D55B" cx="29" cy="22" r="15" /> <path d="M29,38 C20.163444,38 13,30.836556 13,22 C13,13.163444 20.163444,6 29,6 C37.836556,6 45,13.163444 45,22 C44.9895304,30.8322157 37.8322157,37.9895304 29,38 Z M29,8 C21.2680135,8 15,14.2680135 15,22 C15,29.7319865 21.2680135,36 29,36 C36.7319865,36 43,29.7319865 43,22 C42.9917327,14.2714405 36.7285595,8.00826732 29,8 Z" id="Shape" fill="#DF4D60" fill-rule="nonzero" /> <path d="M29,21 C26.832,21 25,19.855 25,18.5 C25,17.361 26.3,16.38 28,16.093 L28,17 C28,17.5522847 28.4477153,18 29,18 C29.5522847,18 30,17.5522847 30,17 L30,16.093 C31.7,16.38 33,17.361 33,18.5 C33,19.0522847 33.4477153,19.5 34,19.5 C34.5522847,19.5 35,19.0522847 35,18.5 C35,16.233 32.871,14.413 30,14.065 L30,13 C30,12.4477153 29.5522847,12 29,12 C28.4477153,12 28,12.4477153 28,13 L28,14.065 C25.129,14.413 23,16.233 23,18.5 C23,21.023 25.636,23 29,23 C31.168,23 33,24.145 33,25.5 C33,26.639 31.7,27.62 30,27.907 L30,27 C30,26.4477153 29.5522847,26 29,26 C28.4477153,26 28,26.4477153 28,27 L28,27.907 C26.3,27.62 25,26.639 25,25.5 C25,24.9477153 24.5522847,24.5 24,24.5 C23.4477153,24.5 23,24.9477153 23,25.5 C23,27.767 25.129,29.587 28,29.935 L28,31 C28,31.5522847 28.4477153,32 29,32 C29.5522847,32 30,31.5522847 30,31 L30,29.935 C32.871,29.587 35,27.767 35,25.5 C35,22.977 32.364,21 29,21 Z" id="Path" fill="#B19046" /> </g> </g> </svg>
