<?xml version="1.0" encoding="utf-8"?>
<!-- Svg Vector Icons : http://www.onlinewebfonts.com/icon -->
<!DOCTYPE svg PUBLIC "-//W3C//DTD SVG 1.1//EN" "http://www.w3.org/Graphics/SVG/1.1/DTD/svg11.dtd">
<svg version="1.1" xmlns="http://www.w3.org/2000/svg" xmlns:xlink="http://www.w3.org/1999/xlink" x="0px" y="0px" viewBox="0 0 256 256" enable-background="new 0 0 256 256" xml:space="preserve">
<metadata> Svg Vector Icons : http://www.onlinewebfonts.com/icon </metadata>
<g><g><path fill="#000000" d="M85.7,134.7h17.8v-17.8H85.7V134.7z M112.5,90.2H94.6V108h17.8V90.2z M85.7,90.2H67.9V108h17.8V90.2z M112.5,134.7h17.8v-17.8h-17.8V134.7L112.5,134.7z M139.2,90.2h-17.8V108h17.8V90.2z M165.9,90.2h-17.8V108h17.8V90.2L165.9,90.2z M192.6,90.2h-17.8V108h17.8V90.2z M139.2,134.7H157v-17.8h-17.8V134.7z M76.8,116.9H41.2v17.8h35.6V116.9z M59,90.2H41.2V108H59V90.2z M174.8,161.4h17.8v-17.8h-17.8V161.4z M201.5,108h17.8V90.2h-17.8V108z M201.5,161.4h17.8v-17.8h-17.8V161.4z M223.8,63.4H32.3c-12.3,0-22.3,10-22.3,22.3v84.6c0,12.3,10,22.3,22.3,22.3h191.5c12.3,0,22.3-10,22.3-22.3V85.7C246,73.4,236.1,63.4,223.8,63.4z M241.6,165.9c0,12.3-10,22.3-22.3,22.3H36.7c-12.3,0-22.3-10-22.3-22.3V90.2c0-12.3,10-22.3,22.3-22.3h182.6c12.3,0,22.3,10,22.3,22.3L241.6,165.9L241.6,165.9L241.6,165.9z M72.4,161.4h17.8v-17.8H72.4V161.4z M99.1,161.4h66.8v-17.8H99.1V161.4z M183.7,116.9h-17.8v17.8h17.8V116.9L183.7,116.9z M41.2,161.4H59v-17.8H41.2V161.4z M192.6,134.7h26.7v-17.8h-26.7V134.7z"/></g></g>
</svg>